<svg xmlns="http://www.w3.org/2000/svg" width="295.08" height="295.08" viewBox="0 0 295.08 295.08">
  <defs>
    <style>
      .cls-1 {
        fill: #fe9d86;
      }
    </style>
  </defs>
  <g id="Layer_2" data-name="Layer 2">
    <g id="Layer_1-2" data-name="Layer 1">
      <g id="Layer_2-2" data-name="Layer 2">
        <g id="Layer_1-2-2" data-name="Layer 1-2">
          <g>
            <path class="cls-1" d="M182.07,77.11H113A35.73,35.73,0,0,0,77.32,112.8v69.07A35.74,35.74,0,0,0,113,217.55h69.07a35.73,35.73,0,0,0,35.69-35.68V112.8A35.73,35.73,0,0,0,182.07,77.11ZM148.25,189.93a42.6,42.6,0,1,1,42.6-42.6A42.6,42.6,0,0,1,148.25,189.93ZM193.33,112a10.15,10.15,0,1,1,10.15-10.15h0A10.14,10.14,0,0,1,193.34,112Z"/>
            <path class="cls-1" d="M148.25,120a27.29,27.29,0,1,0,27.29,27.29A27.29,27.29,0,0,0,148.25,120Z"/>
            <path class="cls-1" d="M147.54,0A147.54,147.54,0,1,0,295.08,147.54,147.55,147.55,0,0,0,147.54,0ZM234,181.87a52,52,0,0,1-52,52H113a52,52,0,0,1-52-52V112.8a52,52,0,0,1,52-52h69.07a52,52,0,0,1,52,52Z"/>
          </g>
        </g>
      </g>
    </g>
  </g>
</svg>
