<svg xmlns="http://www.w3.org/2000/svg" width="295.08" height="295.08" viewBox="0 0 295.08 295.08">
  <defs>
    <style>
      .cls-1 {
        fill: #fe9d86;
      }
    </style>
  </defs>
  <g id="Layer_2" data-name="Layer 2">
    <g id="Layer_1-2" data-name="Layer 1">
      <g id="Layer_2-2" data-name="Layer 2">
        <g id="Layer_1-2-2" data-name="Layer 1-2">
          <path class="cls-1" d="M147.54,0A147.54,147.54,0,1,0,295.08,147.54,147.55,147.55,0,0,0,147.54,0Zm82.17,97.13a4,4,0,0,1-.85,2.56A63.69,63.69,0,0,1,216,113.06c-.73.55-2,1.13-2,2.17,0,26.57-6.79,53.11-26.15,72.35-24.67,24.51-61.67,31.17-94.52,22.1a90.42,90.42,0,0,1-18.27-7.31c-1.94-1.06-3.83-2.15-5.7-3.38-.47-.38-.82-.73-.42-1s.71-.21,2.18,0a64.33,64.33,0,0,0,27.34-3.5c4.78-1.67,15-5,18-9.54.07-.11.14-.11.22-.21-1.2-.28-2.4-.28-3.59-.49-8.93-2.55-20.84-7-26.36-22.08-.35-.88,0-1.33.91-1.16,7.35.58,10,.18,12.55-.39a19.16,19.16,0,0,1-4.25-1.3c-11.25-4.27-19.46-15.24-21-27.1a20,20,0,0,1-.21-3.79c.07-.88.46-1.16,1.24-.67a33.62,33.62,0,0,0,12.79,3.58c-1.44-1.12-2.78-2.35-4.08-3.58C75,118.54,71.23,99.75,79,88.05c.64-.94,1.06-.94,1.83-.06,17.83,20.32,39.8,29.8,66.3,33.74.7.11.77,0,.66-.77a35.73,35.73,0,0,1,.35-13.86A33.7,33.7,0,0,1,154.72,94a35.19,35.19,0,0,1,11-9,34.28,34.28,0,0,1,13.6-3.84,32.55,32.55,0,0,1,14.34,2.31A34.27,34.27,0,0,1,203,89.21a16.16,16.16,0,0,1,1.68,1.73,1.3,1.3,0,0,0,1.33.35,82.37,82.37,0,0,0,19.3-7.38.94.94,0,0,1,.86-.07c.28.21.17.56,0,.84a29.75,29.75,0,0,1-5.41,9.85c-1.54,1.92-5.38,6.66-8,7.1A66.44,66.44,0,0,0,229.06,97c.65-.3.65-.43.65,0Z"/>
        </g>
      </g>
    </g>
  </g>
</svg>
